<?xml version="1.0" standalone="no"?><!DOCTYPE svg PUBLIC "-//W3C//DTD SVG 1.1//EN" "http://www.w3.org/Graphics/SVG/1.1/DTD/svg11.dtd"><svg t="1679035084655" class="icon" viewBox="0 0 1024 1024" version="1.1" xmlns="http://www.w3.org/2000/svg" p-id="3050" data-spm-anchor-id="a313x.7781069.0.i3" width="20" height="20" xmlns:xlink="http://www.w3.org/1999/xlink"><path d="M347.2384 163.4304c11.264 0.256 22.016 4.4544 30.464 11.776l118.784 114.176h284.16a43.52 43.52 0 0 1 40.96 42.8032v77.568h75.7248c27.2896 0 49.408 22.1184 49.408 49.408v6.4l-115.712 353.536a49.5104 49.5104 0 0 1-48.6912 40.6528h-5.632a39.5776 39.5776 0 0 1-5.12 0.3584H154.4704a50.0224 50.0224 0 0 1-50.0224-50.0224V213.4016c0-27.5968 22.4256-49.9712 50.0224-49.9712z m507.392 326.2976H300.8512L205.8752 779.776h553.8304l94.9248-289.9968zM333.312 243.4048H184.4224v344.7808l45.1072-137.728a49.5104 49.5104 0 0 1 48.64-40.704h463.5136v-40.448H482.6624a47.9232 47.9232 0 0 1-30.4128-11.52L333.2608 243.4048z" fill="#ffffff" opacity=".65" p-id="3051"></path></svg>